<svg width="74" height="74" fill="none" xmlns="http://www.w3.org/2000/svg"><circle cx="37" cy="37" r="36" stroke="#FF310B" stroke-width="2"/><path d="M49.065 49.726a.661.661 0 100-1.323.661.661 0 000 1.323zm1.322-5.29a.661.661 0 100-1.323.661.661 0 000 1.323zm-6.613 6.612a.661.661 0 100-1.322.661.661 0 000 1.322z" fill="#FF310B"/><path d="M48.677 30.548h2.371A5.958 5.958 0 0057 24.597V21.29h-3.306a5.958 5.958 0 00-5.952 5.952v2.371l-.771.771C43.07 23.134 37.58 16 36.5 16c-1.153 0-6.374 7.582-7.748 9.728-.098.152-.198.312-.297.47l-.552-.552v-2.372a5.958 5.958 0 00-5.951-5.951h-3.307v3.306a5.958 5.958 0 005.952 5.952h2.371l.771.77c-2.7 4.437-5.489 10.007-5.758 14.42a5.908 5.908 0 00-2.675-.642H16v3.306a5.958 5.958 0 005.952 5.952h2.362C27.014 54.535 31.527 57 36.5 57a14.44 14.44 0 005.435-1.063A10.427 10.427 0 0046.52 57C52.299 57 57 52.298 57 46.519c0-2.8-1.09-5.432-3.07-7.411l-2.22-2.22-1.342 1.341c-.591-2.026-1.573-4.306-2.754-6.617l1.063-1.064zm2.371-1.322H50l2.645-2.645h2.58a4.63 4.63 0 01-4.177 2.645zm4.63-6.613v1.984c0 .225-.022.444-.053.661h-1.658l.855-.855-.935-.935-2.177 2.178v-2.58a4.6 4.6 0 011.983-.453h1.984zm-6.613 4.629a4.61 4.61 0 011.322-3.233v2.96l-1.322 1.322v-1.05zM26.58 23.274v1.049L25.258 23v-2.959a4.61 4.61 0 011.323 3.233zm-1.984 1.984a4.635 4.635 0 01-4.63-4.629v-1.984h1.985a4.6 4.6 0 011.983.453v2.58l-.855-.855-.935.935 3.5 3.5h-1.048zm-.662 22.872l-1.322-1.323v-2.96a4.612 4.612 0 011.323 3.234v1.048zm-6.612-5.678h1.983a4.6 4.6 0 011.984.453v2.58l-2.177-2.178-.935.935.855.855h-1.658a4.644 4.644 0 01-.052-.662v-1.983zm.453 3.967h2.58L23 49.065h-1.048a4.63 4.63 0 01-4.176-2.646zm35.219-6.377a9.097 9.097 0 012.682 6.477c0 5.05-4.108 9.158-9.158 9.158a9.096 9.096 0 01-6.477-2.682l-1.284-1.285.935-.935 1.285 1.285a7.786 7.786 0 005.54 2.295c4.322 0 7.837-3.515 7.837-7.836 0-2.093-.815-4.06-2.295-5.541l-1.285-1.285.935-.935 1.285 1.284zm-3.155.586l1.284 1.285a6.473 6.473 0 011.908 4.606c0 .094-.01.186-.014.28l-6.888-2.46 3.71-3.711zM48.133 52.82l-2.606-7.294 7.294 2.605a6.524 6.524 0 01-4.688 4.69zm-3.795-6.692l2.46 6.889c-.093.004-.185.014-.28.014a6.471 6.471 0 01-4.605-1.908l-1.285-1.284 3.71-3.71zm-7.45 5.58l2.22 2.22c.424.425.884.8 1.364 1.14a13.152 13.152 0 01-3.972.608c-4.622 0-8.809-2.34-11.242-6.263V47.08c0-1.755-.768-3.33-1.98-4.42-.001-.07-.004-.14-.004-.21 0-8.38 11.107-22.745 13.23-24.943 1.961 1.975 10.717 13.386 12.787 21.798L36.888 51.71z" fill="#FF310B"/><path d="M29.887 28.883l1.132.685a86.049 86.049 0 013.459-5.25l-1.078-.766a86.866 86.866 0 00-3.513 5.331zm-2.25 4.008l1.177.603a59.95 59.95 0 011.428-2.616l-1.145-.661c-.53.92-1.021 1.82-1.46 2.674z" fill="#FF310B"/></svg>