<svg width="74" height="74" fill="none" xmlns="http://www.w3.org/2000/svg"><circle cx="37" cy="37" r="36" stroke="#FF310B" stroke-width="2"/><path d="M42.532 38.797h-2.74v-1.37h2.054a.685.685 0 00.686-.685v-2.74a.685.685 0 00-.685-.686h-9.593a.685.685 0 00-.685.685v2.74a.685.685 0 00.685.686h2.056v1.37h-2.74a3.425 3.425 0 00-3.427 3.426v10.963a3.425 3.425 0 003.426 3.425h10.963a3.426 3.426 0 003.425-3.425V42.223a3.426 3.426 0 00-3.425-3.426zm-9.592-2.74v-1.37h8.221v1.37H32.94zm5.48 1.37v1.37h-2.74v-1.37h2.74zm4.112 17.814H31.569a2.062 2.062 0 01-2.055-2.055V42.223a2.062 2.062 0 012.055-2.055h10.963a2.062 2.062 0 011.932 1.37H32.94a2.062 2.062 0 00-2.056 2.055v8.222a2.062 2.062 0 002.056 2.056h11.524a2.062 2.062 0 01-1.932 1.37zm2.055-2.74H32.94a.685.685 0 01-.686-.686v-8.222a.685.685 0 01.686-.685h11.647V52.5zm13.316-29.545a6.166 6.166 0 00-6.248-1.508 6.167 6.167 0 00-1.507-6.247.685.685 0 00-.969 0l-.965.972a6.167 6.167 0 008.72 8.72l.97-.968a.685.685 0 000-.97zm-8.72-5.814l.449-.45a4.802 4.802 0 01-.45 6.264l-.449.45a4.802 4.802 0 01.45-6.264zm6.782 6.783a4.805 4.805 0 01-6.263.45l.45-.45a4.803 4.803 0 016.264-.45l-.45.45zm-31.046-8.721a.685.685 0 00-.97 0 6.162 6.162 0 00-1.507 6.245 6.17 6.17 0 00-6.241 1.508.685.685 0 000 .969l.968.968a6.166 6.166 0 008.718-8.72l-.968-.97zm-6.784 8.72l-.45-.45a4.804 4.804 0 016.264.45l.45.45a4.8 4.8 0 01-6.263-.45zm7.233-.518l-.45-.45a4.796 4.796 0 01-.45-6.264l.45.45a4.803 4.803 0 01.45 6.264zm5.892 4.991a5.911 5.911 0 003.324 1.141 3.371 3.371 0 001.781-.486v2.894h1.37v-2.894a3.367 3.367 0 001.782.486 5.907 5.907 0 003.32-1.14c2.134-1.495 2.09-5.028 2.087-5.178a.685.685 0 00-.438-.625 8.059 8.059 0 00-4.33-.374 6.54 6.54 0 00.32-2.037c0-2.604-2.92-4.596-3.043-4.68a.685.685 0 00-.765 0c-.124.084-3.043 2.074-3.043 4.68a6.52 6.52 0 00.317 2.037 8.084 8.084 0 00-4.33.374.685.685 0 00-.439.625c-.002.15-.046 3.683 2.088 5.177zm12.279-4.673c-.062.88-.33 2.74-1.485 3.549-1.522 1.065-3.347 1.193-3.986.282-.64-.912.107-2.585 1.627-3.65 1.155-.807 2.994-.423 3.844-.181zM37.05 16.93c.686.556 2.056 1.842 2.056 3.253 0 1.856-.942 3.425-2.056 3.425s-2.055-1.569-2.055-3.425c0-1.411 1.37-2.695 2.056-3.253zm-2.645 6.976c1.521 1.065 2.267 2.737 1.627 3.65-.639.912-2.466.783-3.984-.282-1.156-.81-1.424-2.668-1.486-3.551.85-.243 2.689-.626 3.843.183zM47.18 36.601l9.249-9.248.968.969-9.248 9.248-.969-.969zm-30.485-8.283l.969-.968 9.248 9.248-.969.969-9.248-9.249z" fill="#FF310B"/><path d="M36.365 44.279h6.852v1.37h-6.852v-1.37zm0 2.741h6.852v1.37h-6.852v-1.37zm0 2.74h6.852v1.37h-6.852v-1.37zm-2.74-5.481h1.37v1.37h-1.37v-1.37zm0 2.741h1.37v1.37h-1.37v-1.37zm0 2.74h1.37v1.37h-1.37v-1.37z" fill="#FF310B"/></svg>