<svg width="74" height="74" fill="none" xmlns="http://www.w3.org/2000/svg"><circle cx="37" cy="37" r="36" stroke="#FF310B" stroke-width="2"/><path d="M49.362 43.099a6.24 6.24 0 00-2.955.742l-3.202-3.201a7.803 7.803 0 001.153-3.54h1.309a3.032 3.032 0 002.967 2.427A3.03 3.03 0 0051.66 36.5a3.03 3.03 0 00-3.027-3.027 3.032 3.032 0 00-2.967 2.426h-1.31a7.803 7.803 0 00-1.152-3.539l1.248-1.247a.6.6 0 00-.85-.85l-1.114 1.115a7.855 7.855 0 00-.867-.867l4.275-4.274a6.315 6.315 0 00.866.867l-1.173 1.173a.6.6 0 00.85.85l1.341-1.343a6.27 6.27 0 002.956.74 6.245 6.245 0 004.429-1.832A6.222 6.222 0 0057 22.263a6.222 6.222 0 00-1.834-4.429A6.222 6.222 0 0050.737 16a6.222 6.222 0 00-4.429 1.834 6.273 6.273 0 00-1.092 7.385l-4.576 4.576a7.802 7.802 0 00-3.54-1.153v-2.926a3.032 3.032 0 002.427-2.968 3.03 3.03 0 00-3.027-3.027 3.03 3.03 0 00-3.027 3.027 3.032 3.032 0 002.426 2.968v2.926a7.805 7.805 0 00-3.539 1.153l-3.6-3.6a5.46 5.46 0 00.535-2.355 5.46 5.46 0 00-5.455-5.454c-.89 0-1.775.22-2.557.636a.6.6 0 00.564 1.06 4.258 4.258 0 015.978 5.245 1.801 1.801 0 00-.96-.276 1.8 1.8 0 00-1.282.532 1.802 1.802 0 00-.532 1.283c0 .345.098.674.277.96a4.258 4.258 0 01-5.231-6.004.6.6 0 10-1.057-.572 5.463 5.463 0 00-.654 2.59 5.46 5.46 0 005.454 5.455c.818 0 1.623-.184 2.355-.535l3.6 3.6a7.802 7.802 0 00-1.153 3.54h-6.647a3.032 3.032 0 00-2.968-2.427A3.03 3.03 0 0016 36.5a3.03 3.03 0 003.027 3.027 3.032 3.032 0 002.968-2.426h6.647a7.803 7.803 0 001.153 3.539l-2.684 2.684a.6.6 0 10.85.85l2.55-2.552c.266.311.556.6.867.867l-7.046 7.045a4.685 4.685 0 00-.866-.866l2.51-2.51a.6.6 0 00-.85-.85l-2.74 2.741a4.618 4.618 0 00-1.74-.34A4.65 4.65 0 0016 52.356 4.65 4.65 0 0020.645 57a4.65 4.65 0 004.645-4.645c0-.615-.121-1.202-.34-1.74l7.41-7.41a7.802 7.802 0 003.54 1.153v2.926a3.032 3.032 0 00-2.427 2.968 3.03 3.03 0 003.027 3.027 3.03 3.03 0 003.027-3.027 3.032 3.032 0 00-2.426-2.968v-2.926a7.803 7.803 0 003.539-1.153l3.202 3.202a6.223 6.223 0 00-.743 2.955 6.27 6.27 0 006.263 6.263 6.27 6.27 0 006.263-6.263 6.27 6.27 0 00-6.263-6.263zm-2.204-24.415a5.029 5.029 0 013.579-1.483c1.352 0 2.623.527 3.58 1.483a5.03 5.03 0 011.482 3.579 5.029 5.029 0 01-1.483 3.58 5.068 5.068 0 01-7.158 0 5.068 5.068 0 010-7.16zM20.645 55.799a3.448 3.448 0 01-3.444-3.444 3.448 3.448 0 013.444-3.444 3.448 3.448 0 013.444 3.444 3.448 3.448 0 01-3.444 3.444zm27.989-21.125c1.007 0 1.826.819 1.826 1.826 0 1.007-.82 1.826-1.826 1.826a1.828 1.828 0 01-1.826-1.826c0-1.007.819-1.826 1.826-1.826zm-13.96-11.926c0-1.007.819-1.826 1.826-1.826 1.007 0 1.826.82 1.826 1.826a1.828 1.828 0 01-1.826 1.826 1.828 1.828 0 01-1.826-1.826zm-8.242 3.684a.608.608 0 01.867 0l4.08 4.08a7.8 7.8 0 00-.868.866l-4.079-4.08a.609.609 0 010-.866zm-7.405 11.894a1.828 1.828 0 01-1.826-1.826c0-1.007.82-1.826 1.826-1.826 1.007 0 1.826.819 1.826 1.826a1.828 1.828 0 01-1.826 1.826zm19.3 11.926c0 1.007-.82 1.826-1.827 1.826a1.828 1.828 0 01-1.826-1.826c0-1.007.819-1.827 1.826-1.827 1.007 0 1.826.82 1.826 1.827zM36.5 43.179a6.63 6.63 0 01-3.87-1.235 6.662 6.662 0 01-1.575-1.575 6.629 6.629 0 01-1.234-3.869 6.63 6.63 0 011.235-3.87c.434-.61.963-1.14 1.575-1.575a6.63 6.63 0 013.869-1.234 6.63 6.63 0 013.87 1.235c.61.434 1.14.963 1.575 1.575a6.63 6.63 0 011.234 3.869 6.63 6.63 0 01-.85 3.263l-.227-.227a1.802 1.802 0 00-1.283-.531c-.484 0-.94.189-1.283.531a1.803 1.803 0 00-.531 1.283c0 .485.188.94.531 1.283l.227.227a6.63 6.63 0 01-3.263.85zm3.886-1.927a.609.609 0 010-.866.61.61 0 01.866 0l4.138 4.137c-.316.26-.607.55-.867.867l-4.137-4.138zm8.976 13.172a5.067 5.067 0 01-5.062-5.062 5.068 5.068 0 015.062-5.062 5.067 5.067 0 015.062 5.062 5.067 5.067 0 01-5.062 5.062z" fill="#FF310B"/></svg>