<svg width="74" height="74" fill="none" xmlns="http://www.w3.org/2000/svg"><path d="M45.235 24.855c-1.635-2.3-3.178-4.474-4.506-6.573l-.582-.92-.582.92c-1.171 1.852-2.546 3.809-3.742 5.497l1.123.797c1.015-1.432 2.156-3.056 3.2-4.653 1.206 1.845 2.553 3.74 3.966 5.73 4.743 6.677 9.648 13.581 9.648 19.287 0 7.545-6.107 13.683-13.613 13.683-3.218 0-6.341-1.15-8.794-3.24l-.893 1.049A14.955 14.955 0 0040.147 60c8.266 0 14.99-6.756 14.99-15.06 0-6.145-5.034-13.232-9.902-20.085zM27.229 40.919l-1.313-.417c-.504 1.585-.76 3.079-.76 4.438a15.01 15.01 0 004.252 10.505l.988-.958a13.645 13.645 0 01-3.862-9.547c0-1.218.234-2.57.695-4.021z" fill="#FF310B"/><path d="M50.318 42.185h1.376v1.377h-1.377v-1.377zM40.107 55.85l.08 1.374c6.453-.38 11.508-5.777 11.508-12.284h-1.377c0 5.78-4.486 10.571-10.211 10.91zM22.12 35.865l-.896 1.046a9.156 9.156 0 005.954 2.203c5.061 0 9.178-4.136 9.178-9.22 0-3.737-3.014-7.98-5.93-12.084-.967-1.363-1.882-2.65-2.666-3.89l-.582-.92-.582.92c-.784 1.24-1.698 2.527-2.666 3.89C21.015 21.914 18 26.157 18 29.894c0 2.183.773 4.3 2.177 5.962l1.052-.889a7.87 7.87 0 01-1.852-5.073c0-3.298 2.885-7.36 5.675-11.287.751-1.056 1.47-2.068 2.126-3.055a123.27 123.27 0 002.126 3.055c2.79 3.928 5.675 7.99 5.675 11.287 0 4.325-3.5 7.843-7.8 7.843a7.777 7.777 0 01-5.058-1.872z" fill="#FF310B"/><path d="M27.372 34.967l.136 1.37c3.133-.31 5.406-2.73 5.406-5.754h-1.377c0 2.338-1.713 4.14-4.165 4.384zm4.165-7.138h1.377v1.377h-1.377v-1.377z" fill="#FF310B"/><circle cx="37" cy="37" r="36" stroke="#FF310B" stroke-width="2"/></svg>