<svg width="99" height="99" fill="none" xmlns="http://www.w3.org/2000/svg"><path d="M18.905 71.45c-4.249-4.514-6.53-9.575-6.53-17.78 0-14.437 10.135-27.377 24.874-33.775l3.683 5.684c-13.757 7.442-16.446 17.098-17.519 23.187 2.216-1.147 5.116-1.547 7.958-1.283 7.441.689 13.307 6.798 13.307 14.392A14.437 14.437 0 0130.24 76.313a15.966 15.966 0 01-11.335-4.864zm41.25 0c-4.249-4.514-6.53-9.575-6.53-17.78 0-14.437 10.135-27.377 24.874-33.775l3.683 5.684c-13.757 7.442-16.446 17.098-17.519 23.187 2.216-1.147 5.115-1.547 7.958-1.283 7.441.689 13.307 6.798 13.307 14.392A14.437 14.437 0 0171.49 76.313a15.966 15.966 0 01-11.335-4.864z" fill="#767676"/></svg>