<svg width="121" height="120" fill="none" xmlns="http://www.w3.org/2000/svg"><path d="M60.777 20A39.837 39.837 0 0032.57 31.716 40.056 40.056 0 0020.886 60 40.056 40.056 0 0032.57 88.284 39.837 39.837 0 0060.777 100a39.836 39.836 0 0028.207-11.716A40.056 40.056 0 00100.668 60a40.056 40.056 0 00-11.684-28.284A39.836 39.836 0 0060.777 20zM10.913 60c0-27.615 22.324-50 49.864-50 27.54 0 49.864 22.385 49.864 50s-22.324 50-49.864 50c-27.54 0-49.864-22.385-49.864-50zm49.864-25a4.98 4.98 0 013.526 1.465A5.007 5.007 0 0165.763 40v25a5.007 5.007 0 01-1.46 3.535 4.98 4.98 0 01-7.052 0A5.007 5.007 0 0155.791 65V40c0-1.326.525-2.598 1.46-3.535A4.98 4.98 0 0160.777 35zm0 40a4.98 4.98 0 00-3.526 1.465 5.007 5.007 0 000 7.07A4.98 4.98 0 0060.777 85h.05a4.98 4.98 0 003.526-1.464 5.007 5.007 0 000-7.072A4.98 4.98 0 0060.827 75h-.05z" fill="#B11212"/></svg>