<svg width="16" height="16" viewBox="0 0 16 16" fill="none" xmlns="http://www.w3.org/2000/svg">
<path d="M14.6 0L5.9 9.575L3.375 7.65H1.975L5.9 14.025L16 0H14.6Z" fill="#FF310B"/>
<path d="M13.475 14.025C13.475 14.175 13.35 14.3 13.2 14.3H1.975C1.825 14.3 1.7 14.175 1.7 14.025V2.79998C1.7 2.64998 1.825 2.52498 1.975 2.52498H9.65L11.175 0.849976H0.55C0.25 0.849976 0 1.09998 0 1.39998V15.425C0 15.75 0.25 16 0.55 16H14.575C14.875 16 15.125 15.75 15.125 15.45V4.52498L13.45 6.87498C13.475 6.87498 13.475 14.025 13.475 14.025" fill="white"/>
</svg>
