<svg width="74" height="74" viewBox="0 0 74 74" fill="none" xmlns="http://www.w3.org/2000/svg">
<circle cx="37" cy="37" r="36" stroke="#FF310B" stroke-width="2"/>
<path d="M49.0645 49.7257C49.4297 49.7257 49.7258 49.4296 49.7258 49.0644C49.7258 48.6991 49.4297 48.4031 49.0645 48.4031C48.6993 48.4031 48.4032 48.6991 48.4032 49.0644C48.4032 49.4296 48.6993 49.7257 49.0645 49.7257Z" fill="#FF310B"/>
<path d="M50.3871 44.4356C50.7523 44.4356 51.0484 44.1395 51.0484 43.7743C51.0484 43.4091 50.7523 43.113 50.3871 43.113C50.0219 43.113 49.7258 43.4091 49.7258 43.7743C49.7258 44.1395 50.0219 44.4356 50.3871 44.4356Z" fill="#FF310B"/>
<path d="M43.7742 51.0484C44.1394 51.0484 44.4355 50.7523 44.4355 50.3871C44.4355 50.0219 44.1394 49.7258 43.7742 49.7258C43.409 49.7258 43.1129 50.0219 43.1129 50.3871C43.1129 50.7523 43.409 51.0484 43.7742 51.0484Z" fill="#FF310B"/>
<path d="M48.677 30.5484H51.0484C54.3304 30.5484 57 27.8781 57 24.5968V21.2903H53.6935C50.4116 21.2903 47.7419 23.9606 47.7419 27.2419V29.6133L46.9709 30.3844C43.0719 23.1347 37.5799 16 36.5 16C35.3467 16 30.1258 23.5824 28.7517 25.7276C28.6538 25.8803 28.5539 26.0404 28.4547 26.1971L27.9032 25.6456V23.2742C27.9032 19.9929 25.2336 17.3226 21.9516 17.3226H18.6452V20.629C18.6452 23.9104 21.3148 26.5806 24.5968 26.5806H26.9682L27.7392 27.3517C25.0392 31.7876 22.2505 37.3577 21.9814 41.7711C21.1759 41.3638 20.2693 41.129 19.3065 41.129H16V44.4355C16 47.7175 18.6696 50.3871 21.9516 50.3871H24.3137C27.0131 54.5354 31.5271 57 36.5 57C38.3827 57 40.2065 56.635 41.9351 55.9373C43.3463 56.6257 44.9024 57 46.5186 57C52.2982 57 57 52.2982 57 46.5186C57 43.7193 55.9102 41.0874 53.9296 39.1075L51.7097 36.8875L50.3679 38.2293C49.7767 36.2031 48.7947 33.923 47.6136 31.6117L48.677 30.5484ZM51.0484 29.2258H49.9996L52.6447 26.5806H55.2244C54.4792 28.142 52.8901 29.2258 51.0484 29.2258ZM55.6774 22.6129V24.5968C55.6774 24.8216 55.6556 25.0412 55.6245 25.2581H53.9673L54.8224 24.403L53.8873 23.468L51.7097 25.6456V23.0659C52.3121 22.7789 52.9833 22.6129 53.6935 22.6129H55.6774ZM49.0645 27.2419C49.0645 25.9842 49.5704 24.8434 50.3871 24.0089V26.9682L49.0645 28.2907V27.2419ZM26.5806 23.2742V24.323L25.2581 23.0004V20.0411C26.0748 20.8757 26.5806 22.0164 26.5806 23.2742ZM24.5968 25.2581C22.0449 25.2581 19.9677 23.1816 19.9677 20.629V18.6452H21.9516C22.6618 18.6452 23.333 18.8111 23.9355 19.0981V21.6778L23.0804 20.8228L22.1454 21.7579L25.6456 25.2581H24.5968ZM23.9355 48.1295L22.6129 46.8069V43.8476C23.4296 44.6828 23.9355 45.8235 23.9355 47.0806V48.1295ZM17.3226 42.4516H19.3065C20.0167 42.4516 20.6879 42.6176 21.2903 42.9046V45.4843L19.1127 43.3067L18.1776 44.2417L19.0327 45.0968H17.3755C17.3444 44.8799 17.3226 44.6603 17.3226 44.4355V42.4516ZM17.7756 46.4194H20.3553L23.0004 49.0645H21.9516C20.1099 49.0645 18.5208 47.9807 17.7756 46.4194V46.4194ZM52.9946 40.0425C54.7252 41.7731 55.6774 44.0724 55.6774 46.5186C55.6774 51.5688 51.5688 55.6774 46.5186 55.6774C44.0724 55.6774 41.7725 54.7252 40.0425 52.9946L38.7576 51.7097L39.6927 50.7746L40.9776 52.0595C42.4589 53.5401 44.4262 54.3548 46.5186 54.3548C50.8401 54.3548 54.3548 50.8401 54.3548 46.5186C54.3548 44.4262 53.5401 42.4582 52.0595 40.9776L50.7746 39.6927L51.7097 38.7576L52.9946 40.0425ZM49.8396 40.6278L51.1244 41.9127C52.3551 43.144 53.0323 44.78 53.0323 46.5186C53.0323 46.6131 53.0223 46.705 53.0184 46.7989L46.1297 44.3383L49.8396 40.6278ZM48.1328 52.8213L45.5266 45.5266L52.8213 48.1321C52.2334 50.4274 50.4274 52.2334 48.1328 52.8213V52.8213ZM44.3383 46.1291L46.7989 53.0177C46.705 53.0223 46.6131 53.0323 46.5186 53.0323C44.7794 53.0323 43.1433 52.3551 41.9127 51.1244L40.6278 49.8396L44.3383 46.1291ZM36.8875 51.7097L39.1075 53.9296C39.532 54.3542 39.9923 54.7291 40.4717 55.0697C39.1934 55.4731 37.8629 55.6774 36.5 55.6774C31.8782 55.6774 27.691 53.3371 25.2581 49.4143V47.0806C25.2581 45.3256 24.4903 43.7504 23.2775 42.6606C23.2768 42.5905 23.2742 42.5217 23.2742 42.4516C23.2742 34.0704 34.3812 19.7059 36.5046 17.5077C38.4654 19.483 47.2208 30.8936 49.2907 39.3059L36.8875 51.7097Z" fill="#FF310B"/>
<path d="M29.8871 28.8832L31.0186 29.5682C32.0674 27.8377 33.2312 26.0713 34.4778 24.3189L33.4005 23.5525C32.1348 25.3307 30.9524 27.1248 29.8871 28.8832Z" fill="#FF310B"/>
<path d="M27.6374 32.8913L28.8138 33.4944C29.2423 32.6579 29.7231 31.7777 30.2422 30.8783L29.0969 30.217C28.5665 31.1362 28.0758 32.0362 27.6374 32.8913Z" fill="#FF310B"/>
</svg>
