<svg width="74" height="74" viewBox="0 0 74 74" fill="none" xmlns="http://www.w3.org/2000/svg">
<path d="M45.235 24.8554C43.6004 22.5544 42.0565 20.381 40.729 18.2821L40.1471 17.3621L39.5651 18.282C38.394 20.1336 37.0194 22.0906 35.8227 23.7795L36.9462 24.5756C37.9607 23.1438 39.1024 21.5204 40.1469 19.9226C41.3524 21.7677 42.6987 23.663 44.1122 25.6529C48.8554 32.3297 53.76 39.234 53.76 44.9397C53.76 52.4848 47.6532 58.6232 40.147 58.6232C36.9287 58.6232 33.8055 57.4727 31.3526 55.3836L30.4597 56.4319C33.1614 58.7329 36.6017 60.0002 40.1469 60.0002C48.4125 60.0002 55.1369 53.2441 55.1369 44.9397C55.1371 38.7947 50.1032 31.7084 45.235 24.8554V24.8554Z" fill="#FF310B"/>
<path d="M27.2285 40.9186L25.9162 40.5017C25.4124 42.0875 25.1569 43.5807 25.1569 44.9397C25.1569 48.8865 26.6665 52.6175 29.4078 55.4454L30.3965 54.487C27.9057 51.9174 26.534 48.5268 26.534 44.9397C26.534 43.7223 26.7677 42.3693 27.2285 40.9186V40.9186Z" fill="#FF310B"/>
<path d="M50.3175 42.1855H51.6944V43.5625H50.3175V42.1855Z" fill="#FF310B"/>
<path d="M40.1066 55.8492L40.1877 57.2238C46.6401 56.8431 51.6946 51.4473 51.6946 44.9397H50.3176C50.3175 50.7193 45.8323 55.5114 40.1066 55.8492Z" fill="#FF310B"/>
<path d="M22.1205 35.8651L21.2243 36.9106C22.8824 38.3316 24.9968 39.1143 27.1782 39.1143C32.2391 39.1143 36.3565 34.9782 36.3565 29.8942C36.3565 26.157 33.3419 21.9133 30.4265 17.8095C29.4585 16.4467 28.5441 15.1596 27.7601 13.92L27.1783 13L26.5963 13.92C25.8123 15.1597 24.898 16.4468 23.9298 17.8096C21.0145 21.9135 18 26.1571 18 29.8942C18 32.0765 18.7733 34.1936 20.1772 35.8557L21.2292 34.9671C20.0348 33.5532 19.377 31.7516 19.377 29.8942C19.377 26.5964 22.2622 22.5348 25.0524 18.6071C25.803 17.5507 26.5215 16.539 27.1782 15.5518C27.8348 16.5389 28.5534 17.5505 29.3039 18.607C32.0942 22.5347 34.9794 26.5963 34.9794 29.8942C34.9794 34.2189 31.4798 37.7372 27.1781 37.7372C25.3252 37.7372 23.5291 37.0724 22.1205 35.8651V35.8651Z" fill="#FF310B"/>
<path d="M27.3724 34.9666L27.5082 36.337C30.6405 36.0267 32.914 33.6067 32.914 30.5828H31.537C31.5369 32.921 29.8244 34.7236 27.3724 34.9666V34.9666Z" fill="#FF310B"/>
<path d="M31.5369 27.8286H32.9138V29.2056H31.5369V27.8286Z" fill="#FF310B"/>
<circle cx="37" cy="37" r="36" stroke="#FF310B" stroke-width="2"/>
</svg>
