<svg width="74" height="74" viewBox="0 0 74 74" fill="none" xmlns="http://www.w3.org/2000/svg">
<circle cx="37" cy="37" r="36" stroke="#FF310B" stroke-width="2"/>
<path d="M42.5317 38.7974H39.7911V37.4271H41.8465C42.0282 37.4271 42.2025 37.3549 42.331 37.2264C42.4595 37.0979 42.5317 36.9236 42.5317 36.7419V34.0013C42.5317 33.8196 42.4595 33.6453 42.331 33.5168C42.2025 33.3883 42.0282 33.3162 41.8465 33.3162H32.2544C32.0727 33.3162 31.8984 33.3883 31.7699 33.5168C31.6414 33.6453 31.5693 33.8196 31.5693 34.0013V36.7419C31.5693 36.9236 31.6414 37.0979 31.7699 37.2264C31.8984 37.3549 32.0727 37.4271 32.2544 37.4271H34.3099V38.7974H31.5693C30.6607 38.7974 29.7893 39.1583 29.1469 39.8008C28.5044 40.4432 28.1435 41.3146 28.1435 42.2231V53.1856C28.1435 54.0941 28.5044 54.9655 29.1469 55.6079C29.7893 56.2504 30.6607 56.6113 31.5693 56.6113H42.5317C43.4403 56.6113 44.3116 56.2504 44.9541 55.6079C45.5965 54.9655 45.9574 54.0941 45.9574 53.1856V42.2231C45.9574 41.3146 45.5965 40.4432 44.9541 39.8008C44.3116 39.1583 43.4403 38.7974 42.5317 38.7974V38.7974ZM32.9396 36.0568V34.6865H41.1614V36.0568H32.9396ZM38.4208 37.4271V38.7974H35.6802V37.4271H38.4208ZM42.5317 55.241H31.5693C31.0246 55.2394 30.5027 55.0223 30.1176 54.6372C29.7325 54.2521 29.5154 53.7302 29.5138 53.1856V42.2231C29.5154 41.6785 29.7325 41.1566 30.1176 40.7715C30.5027 40.3864 31.0246 40.1693 31.5693 40.1677H42.5317C42.9555 40.1699 43.3684 40.3026 43.7141 40.5478C44.0598 40.793 44.3216 41.1387 44.4638 41.538H32.9396C32.3949 41.5396 31.873 41.7567 31.4879 42.1418C31.1028 42.5269 30.8857 43.0488 30.8841 43.5934V51.8153C30.8857 52.3599 31.1028 52.8818 31.4879 53.2669C31.873 53.652 32.3949 53.8691 32.9396 53.8707H44.4638C44.3216 54.27 44.0598 54.6157 43.7141 54.8609C43.3684 55.1061 42.9555 55.2388 42.5317 55.241V55.241ZM44.5871 52.5004H32.9396C32.7578 52.5004 32.5836 52.4282 32.4551 52.2997C32.3266 52.1713 32.2544 51.997 32.2544 51.8153V43.5934C32.2544 43.4117 32.3266 43.2375 32.4551 43.109C32.5836 42.9805 32.7578 42.9083 32.9396 42.9083H44.5871V52.5004Z" fill="#FF310B"/>
<path d="M57.9031 22.9558C57.1009 22.1544 56.0933 21.5897 54.991 21.3238C53.8887 21.0579 52.7345 21.101 51.6551 21.4485C52.0026 20.3692 52.0458 19.2149 51.7799 18.1126C51.5139 17.0104 50.9492 16.0028 50.1478 15.2006C50.0193 15.0722 49.8451 15 49.6634 15C49.4817 15 49.3075 15.0722 49.179 15.2006L48.2136 16.1728C47.0572 17.3293 46.4075 18.8977 46.4075 20.5331C46.4075 21.3429 46.567 22.1448 46.8769 22.8929C47.1868 23.6411 47.641 24.3208 48.2136 24.8934C48.7862 25.4661 49.466 25.9203 50.2142 26.2302C50.9623 26.54 51.7642 26.6995 52.5739 26.6995C54.2094 26.6995 55.7778 26.0499 56.9342 24.8934L57.9031 23.9246C58.0315 23.7962 58.1037 23.6219 58.1037 23.4402C58.1037 23.2586 58.0315 23.0843 57.9031 22.9558V22.9558ZM49.1824 17.1423L49.6319 16.6922C50.3213 17.6163 50.6552 18.7576 50.5726 19.9076C50.4901 21.0576 49.9967 22.1396 49.1824 22.9558L48.733 23.4053C48.0437 22.4812 47.7098 21.3401 47.7923 20.1902C47.8748 19.0403 48.3682 17.9585 49.1824 17.1423V17.1423ZM55.9654 23.9253C55.149 24.739 54.0672 25.2321 52.9175 25.3146C51.7678 25.3971 50.6267 25.0635 49.7025 24.3748L50.1519 23.9253C50.9682 23.1111 52.0501 22.6176 53.2001 22.5351C54.3501 22.4526 55.4914 22.7865 56.4156 23.4759L55.9654 23.9253Z" fill="#FF310B"/>
<path d="M24.9185 15.2043C24.79 15.0758 24.6158 15.0037 24.4341 15.0037C24.2524 15.0037 24.0782 15.0758 23.9497 15.2043C23.1483 16.0059 22.5836 17.013 22.3176 18.1148C22.0517 19.2167 22.0949 20.3705 22.4423 21.4494C21.3638 21.1036 20.2109 21.0612 19.1099 21.3271C18.009 21.593 17.0024 22.1568 16.2006 22.9568C16.0722 23.0852 16 23.2595 16 23.4412C16 23.6228 16.0722 23.7971 16.2006 23.9256L17.1694 24.8944C18.3317 26.022 19.891 26.6472 21.5105 26.6347C23.1299 26.6223 24.6794 25.9733 25.8243 24.828C26.9692 23.6826 27.6176 22.1329 27.6294 20.5134C27.6411 18.894 27.0154 17.335 25.8873 16.1731L24.9185 15.2043ZM18.1355 23.9249L17.6853 23.4747C18.6097 22.7857 19.751 22.4521 20.9009 22.5348C22.0508 22.6174 23.1327 23.1108 23.949 23.9249L24.3984 24.3743C23.4745 25.0636 22.3334 25.3975 21.1837 25.3149C20.0339 25.2324 18.9522 24.739 18.1362 23.9249H18.1355ZM25.3679 23.4055L24.9178 22.9561C24.102 22.1406 23.6074 21.0584 23.5247 19.9078C23.4421 18.7573 23.7768 17.6155 24.4676 16.6917L24.9178 17.1426C25.7321 17.9586 26.2256 19.0403 26.3084 20.1902C26.3912 21.34 26.0576 22.4813 25.3686 23.4055H25.3679Z" fill="#FF310B"/>
<path d="M31.2609 28.3972C32.2274 29.1055 33.3862 29.5033 34.5839 29.538C35.2113 29.545 35.8283 29.3768 36.3653 29.0522V31.9456H37.7356V29.0522C38.2725 29.377 38.8895 29.5452 39.517 29.538C40.7135 29.5029 41.8712 29.105 42.8366 28.3972C44.9708 26.9029 44.927 23.3696 44.9242 23.2202C44.9215 23.0842 44.8783 22.9521 44.8002 22.8407C44.7222 22.7293 44.6127 22.6436 44.4857 22.5947C43.104 22.0761 41.6064 21.947 40.1562 22.2213C40.37 21.5632 40.478 20.8755 40.4762 20.1836C40.4762 17.58 37.5568 15.5876 37.4328 15.504C37.3197 15.428 37.1866 15.3875 37.0505 15.3875C36.9143 15.3875 36.7812 15.428 36.6681 15.504C36.5441 15.5876 33.6247 17.578 33.6247 20.1836C33.622 20.8753 33.7291 21.5631 33.9419 22.2213C32.4915 21.9482 30.994 22.0773 29.6118 22.5947C29.4848 22.6436 29.3753 22.7293 29.2972 22.8407C29.2191 22.9521 29.176 23.0842 29.1733 23.2202C29.1712 23.3696 29.1274 26.9029 31.2609 28.3972V28.3972ZM43.5388 23.7238C43.4772 24.6049 43.2086 26.4644 42.0541 27.2729C40.5324 28.3376 38.7072 28.4664 38.0679 27.5545C37.4287 26.6426 38.1748 24.9701 39.6951 23.9054C40.8503 23.0976 42.6893 23.4819 43.5388 23.7238V23.7238ZM37.0505 16.9312C37.7356 17.4869 39.1059 18.7729 39.1059 20.1836C39.1059 22.0404 38.1645 23.6094 37.0505 23.6094C35.9364 23.6094 34.995 22.0404 34.995 20.1836C34.995 18.7729 36.3653 17.4889 37.0505 16.9312ZM34.4051 23.9074C35.9261 24.9722 36.6716 26.6439 36.0323 27.5565C35.3931 28.4692 33.5658 28.3397 32.0475 27.2749C30.8916 26.4644 30.6237 24.607 30.5621 23.7238C31.4117 23.4813 33.2506 23.0976 34.4051 23.9074V23.9074Z" fill="#FF310B"/>
<path d="M47.1804 36.6011L56.4286 27.3529L57.3974 28.3217L48.1492 37.5699L47.1804 36.6011Z" fill="#FF310B"/>
<path d="M16.6949 28.3184L17.6638 27.3496L26.912 36.5978L25.9432 37.5666L16.6949 28.3184Z" fill="#FF310B"/>
<path d="M36.3653 44.2786H43.2168V45.6489H36.3653V44.2786Z" fill="#FF310B"/>
<path d="M36.3653 47.0193H43.2168V48.3896H36.3653V47.0193Z" fill="#FF310B"/>
<path d="M36.3653 49.7595H43.2168V51.1298H36.3653V49.7595Z" fill="#FF310B"/>
<path d="M33.6247 44.2786H34.995V45.6489H33.6247V44.2786Z" fill="#FF310B"/>
<path d="M33.6247 47.0193H34.995V48.3896H33.6247V47.0193Z" fill="#FF310B"/>
<path d="M33.6247 49.7595H34.995V51.1298H33.6247V49.7595Z" fill="#FF310B"/>
</svg>
