<svg width="74" height="74" viewBox="0 0 74 74" fill="none" xmlns="http://www.w3.org/2000/svg">
<circle cx="37" cy="37" r="36" stroke="#FF310B" stroke-width="2"/>
<path d="M49.3618 43.0988C48.2938 43.0988 47.2877 43.3681 46.4069 43.8414L43.2052 40.6396C43.87 39.567 44.2633 38.3613 44.3579 37.1005H45.6666C45.946 38.4831 47.1703 39.5273 48.6339 39.5273C50.3032 39.5273 51.6613 38.1692 51.6613 36.4999C51.6613 34.8306 50.3032 33.4726 48.6339 33.4726C47.1703 33.4726 45.946 34.5168 45.6666 35.8993H44.3579C44.2633 34.6384 43.87 33.4326 43.2053 32.3602L44.4529 31.1126C44.6874 30.878 44.6874 30.4977 44.4529 30.2633C44.2183 30.0287 43.838 30.0287 43.6036 30.2633L42.4886 31.3782C42.2225 31.0669 41.9331 30.7774 41.622 30.5114L45.8966 26.2368C46.0253 26.3933 46.1623 26.5454 46.3085 26.6916C46.4548 26.8379 46.6068 26.9748 46.7634 27.1036L45.5898 28.2771C45.3553 28.5116 45.3553 28.8919 45.5898 29.1264C45.7071 29.2437 45.8608 29.3023 46.0145 29.3023C46.1682 29.3023 46.3219 29.2437 46.4391 29.1264L47.7813 27.7842C48.7014 28.2761 49.7191 28.5231 50.7371 28.5231C52.3409 28.5231 53.9448 27.9126 55.1657 26.6916C56.3486 25.5087 57 23.9359 57 22.263C57 20.5901 56.3486 19.0173 55.1656 17.8343C53.9827 16.6514 52.4099 16 50.737 16C49.0641 16 47.4913 16.6514 46.3084 17.8344C44.3123 19.8304 43.9488 22.8492 45.2158 25.2188L40.6397 29.7949C39.5671 29.1301 38.3613 28.7368 37.1006 28.6423V25.7157C38.4831 25.4363 39.5274 24.2121 39.5274 22.7484C39.5274 21.0791 38.1693 19.7211 36.5 19.7211C34.8307 19.7211 33.4726 21.0791 33.4726 22.7484C33.4726 24.2121 34.5169 25.4363 35.8994 25.7157V28.6423C34.6385 28.7369 33.4327 29.1303 32.3603 29.7949L28.7604 26.1951C29.1105 25.463 29.2946 24.658 29.2946 23.8405C29.2946 20.8331 26.8479 18.3864 23.8404 18.3864C22.9496 18.3864 22.0654 18.6062 21.2834 19.0221C20.9905 19.1778 20.8794 19.5415 21.0351 19.8344C21.1908 20.1272 21.5545 20.2385 21.8474 20.0827C22.4563 19.7587 23.1455 19.5875 23.8404 19.5875C26.1855 19.5875 28.0934 21.4954 28.0934 23.8404C28.0934 24.3506 28.0015 24.8543 27.8253 25.3275C27.5399 25.1486 27.2102 25.0512 26.865 25.0512C26.3808 25.0512 25.9254 25.24 25.5827 25.5827C25.24 25.9254 25.0512 26.381 25.0512 26.8655C25.0512 27.2105 25.1486 27.54 25.3275 27.8254C24.8543 28.0016 24.3506 28.0935 23.8404 28.0935C21.4954 28.0935 19.5875 26.1856 19.5875 23.8405C19.5875 23.1354 19.7634 22.4373 20.0963 21.8216C20.2541 21.5298 20.1454 21.1654 19.8536 21.0076C19.5617 20.8499 19.1974 20.9585 19.0396 21.2503C18.6122 22.0409 18.3863 22.9366 18.3863 23.8404C18.3863 26.8479 20.833 29.2946 23.8404 29.2946C24.658 29.2946 25.4629 29.1106 26.195 28.7604L29.7949 32.3603C29.1301 33.4329 28.7368 34.6387 28.6423 35.8994H21.9946C21.7153 34.5169 20.491 33.4726 19.0274 33.4726C17.358 33.4726 16 34.8307 16 36.5C16 38.1693 17.358 39.5274 19.0274 39.5274C20.491 39.5274 21.7153 38.4831 21.9946 37.1006H28.6422C28.7368 38.3615 29.1301 39.5673 29.7948 40.6397L27.1108 43.3238C26.8762 43.5583 26.8762 43.9386 27.1108 44.1731C27.228 44.2903 27.3817 44.349 27.5354 44.349C27.6891 44.349 27.8428 44.2904 27.9601 44.1731L30.5114 41.6218C30.7774 41.9331 31.0669 42.2226 31.378 42.4886L24.3324 49.5342C24.0828 49.2087 23.7912 48.9172 23.4657 48.6676L25.976 46.1572C26.2105 45.9226 26.2105 45.5423 25.976 45.3079C25.7414 45.0733 25.3611 45.0733 25.1267 45.3079L22.3854 48.0491C21.8475 47.8309 21.2604 47.7096 20.6452 47.7096C18.0838 47.7097 16 49.7934 16 52.3548C16 54.9162 18.0838 57 20.6452 57C23.2066 57 25.2903 54.9162 25.2903 52.3548C25.2903 51.7396 25.169 51.1525 24.9508 50.6146L32.3603 43.2052C33.4329 43.87 34.6387 44.2633 35.8994 44.3578V47.2844C34.5169 47.5638 33.4726 48.788 33.4726 50.2517C33.4726 51.921 34.8307 53.279 36.5 53.279C38.1693 53.279 39.5274 51.921 39.5274 50.2517C39.5274 48.788 38.4831 47.5638 37.1006 47.2844V44.3578C38.3613 44.2633 39.567 43.8699 40.6397 43.2051L43.8415 46.4069C43.3681 47.2876 43.0988 48.2937 43.0988 49.3617C43.0988 52.8152 45.9084 55.6247 49.3618 55.6247C52.8153 55.6247 55.6248 52.8152 55.6248 49.3617C55.6248 45.9083 52.8153 43.0988 49.3618 43.0988V43.0988ZM47.1577 18.6837C48.1138 17.7277 49.3849 17.2012 50.737 17.2012C52.0891 17.2012 53.3602 17.7277 54.3163 18.6837C55.2723 19.6398 55.7988 20.911 55.7988 22.263C55.7988 23.615 55.2723 24.8862 54.3163 25.8422C52.3426 27.8158 49.1313 27.8158 47.1577 25.8422C45.1841 23.8686 45.1841 20.6573 47.1577 18.6837ZM20.6452 55.7988C18.7461 55.7988 17.2012 54.2539 17.2012 52.3548C17.2012 50.4559 18.7461 48.9108 20.6452 48.9108C22.5441 48.9108 24.0892 50.4558 24.0892 52.3548C24.0892 54.2539 22.5442 55.7988 20.6452 55.7988V55.7988ZM48.6338 34.6738C49.6407 34.6738 50.4599 35.493 50.4599 36.5C50.4599 37.507 49.6407 38.3262 48.6338 38.3262C47.6268 38.3262 46.8077 37.507 46.8077 36.5C46.8077 35.493 47.6269 34.6738 48.6338 34.6738ZM34.6738 22.7483C34.6738 21.7414 35.493 20.9222 36.5 20.9222C37.507 20.9222 38.3262 21.7414 38.3262 22.7483C38.3262 23.7553 37.507 24.5745 36.5 24.5745C35.493 24.5745 34.6738 23.7553 34.6738 22.7483ZM26.4321 26.432C26.5479 26.3162 26.7016 26.2524 26.865 26.2524C27.0288 26.2524 27.1829 26.3162 27.2988 26.4321L31.3782 30.5115C31.0669 30.7776 30.7774 31.0671 30.5114 31.3782L26.432 27.2987C26.3161 27.1829 26.2523 27.029 26.2523 26.8654C26.2523 26.7018 26.3162 26.5479 26.4321 26.432V26.432ZM19.0274 38.3262C18.0204 38.3262 17.2012 37.507 17.2012 36.5C17.2012 35.493 18.0204 34.6738 19.0274 34.6738C20.0343 34.6738 20.8535 35.493 20.8535 36.5C20.8535 37.507 20.0343 38.3262 19.0274 38.3262ZM38.3262 50.2517C38.3262 51.2586 37.507 52.0778 36.5 52.0778C35.493 52.0778 34.6738 51.2586 34.6738 50.2517C34.6738 49.2447 35.493 48.4255 36.5 48.4255C37.507 48.4255 38.3262 49.2447 38.3262 50.2517ZM36.5 43.1793C35.1022 43.1793 33.7642 42.7523 32.6301 41.9442C32.0195 41.5102 31.4898 40.9805 31.0553 40.3691C30.2476 39.2358 29.8207 37.8978 29.8207 36.5C29.8207 35.1022 30.2477 33.7642 31.0558 32.6301C31.4898 32.0195 32.0195 31.4898 32.6309 31.0553C33.7642 30.2477 35.1022 29.8207 36.5 29.8207C37.8978 29.8207 39.2358 30.2477 40.3699 31.0558C40.9805 31.4898 41.5102 32.0195 41.9447 32.6309C42.7523 33.7642 43.1793 35.1022 43.1793 36.5C43.1793 37.6561 42.8865 38.7709 42.3285 39.7632L42.1017 39.5364C41.759 39.1937 41.3036 39.0048 40.8193 39.0048C40.3346 39.0048 39.8789 39.1936 39.5362 39.5363C39.1935 39.8791 39.0048 40.3346 39.0048 40.8191C39.0048 41.3036 39.1935 41.7591 39.5362 42.1018L39.7631 42.3286C38.7709 42.8865 37.6561 43.1793 36.5 43.1793V43.1793ZM40.3856 41.2523C40.2698 41.1365 40.2059 40.9826 40.2059 40.819C40.2059 40.6554 40.2698 40.5015 40.3856 40.3856C40.5014 40.2698 40.6555 40.206 40.8193 40.206C40.9827 40.206 41.1364 40.2698 41.2523 40.3857L45.3899 44.5232C45.0736 44.7833 44.7832 45.0736 44.5231 45.39L40.3856 41.2523ZM49.3618 54.4236C46.5707 54.4236 44.3 52.153 44.3 49.3618C44.3 46.5707 46.5707 44.3 49.3618 44.3C52.153 44.3 54.4236 46.5707 54.4236 49.3618C54.4236 52.153 52.153 54.4236 49.3618 54.4236Z" fill="#FF310B"/>
</svg>
