<svg width="99" height="99" viewBox="0 0 99 99" fill="none" xmlns="http://www.w3.org/2000/svg">
<path d="M18.9049 71.4491C14.6561 66.9364 12.375 61.875 12.375 53.6704C12.375 39.2329 22.5101 26.2927 37.2487 19.8949L40.9324 25.5791C27.1755 33.0206 24.486 42.6772 23.4135 48.7657C25.6286 47.619 28.5285 47.2189 31.3706 47.4829C38.8121 48.1717 44.6779 54.2809 44.6779 61.875C44.6779 65.7041 43.1568 69.3763 40.4492 72.0838C37.7417 74.7914 34.0694 76.3125 30.2404 76.3125C28.1228 76.294 26.0301 75.8545 24.0841 75.0195C22.138 74.1846 20.3774 72.9709 18.9049 71.4491V71.4491ZM60.1549 71.4491C55.9061 66.9364 53.625 61.875 53.625 53.6704C53.625 39.2329 63.7601 26.2927 78.4987 19.8949L82.1824 25.5791C68.4255 33.0206 65.736 42.6772 64.6635 48.7657C66.8786 47.619 69.7785 47.2189 72.6206 47.4829C80.0621 48.1717 85.9279 54.2809 85.9279 61.875C85.9279 65.7041 84.4068 69.3763 81.6992 72.0838C78.9917 74.7914 75.3194 76.3125 71.4904 76.3125C69.3728 76.294 67.2801 75.8545 65.3341 75.0195C63.388 74.1846 61.6274 72.9709 60.1549 71.4491V71.4491Z" fill="#767676"/>
</svg>
