<svg width="121" height="120" viewBox="0 0 121 120" fill="none" xmlns="http://www.w3.org/2000/svg">
<path d="M60.777 20C50.1972 20 40.0507 24.2143 32.5696 31.7157C25.0886 39.2172 20.8858 49.3913 20.8858 60C20.8858 70.6087 25.0886 80.7828 32.5696 88.2843C40.0507 95.7857 50.1972 100 60.777 100C71.3568 100 81.5032 95.7857 88.9843 88.2843C96.4653 80.7828 100.668 70.6087 100.668 60C100.668 49.3913 96.4653 39.2172 88.9843 31.7157C81.5032 24.2143 71.3568 20 60.777 20V20ZM10.913 60C10.913 32.385 33.2371 10 60.777 10C88.3168 10 110.641 32.385 110.641 60C110.641 87.615 88.3168 110 60.777 110C33.2371 110 10.913 87.615 10.913 60ZM60.777 35C62.0994 35 63.3677 35.5268 64.3029 36.4645C65.238 37.4022 65.7634 38.6739 65.7634 40V65C65.7634 66.3261 65.238 67.5979 64.3029 68.5355C63.3677 69.4732 62.0994 70 60.777 70C59.4545 70 58.1862 69.4732 57.251 68.5355C56.3159 67.5979 55.7906 66.3261 55.7906 65V40C55.7906 38.6739 56.3159 37.4022 57.251 36.4645C58.1862 35.5268 59.4545 35 60.777 35V35ZM60.777 75C59.4545 75 58.1862 75.5268 57.251 76.4645C56.3159 77.4022 55.7906 78.6739 55.7906 80C55.7906 81.3261 56.3159 82.5979 57.251 83.5356C58.1862 84.4732 59.4545 85 60.777 85H60.8268C62.1493 85 63.4176 84.4732 64.3527 83.5356C65.2879 82.5979 65.8132 81.3261 65.8132 80C65.8132 78.6739 65.2879 77.4022 64.3527 76.4645C63.4176 75.5268 62.1493 75 60.8268 75H60.777Z" fill="#B11212"/>
</svg>
